<?xml version="1.0" standalone="no"?>
<!DOCTYPE svg PUBLIC "-//W3C//DTD SVG 20010904//EN"
 "http://www.w3.org/TR/2001/REC-SVG-20010904/DTD/svg10.dtd">
<svg version="1.0" xmlns="http://www.w3.org/2000/svg"
 width="700.000000pt" height="700.000000pt" viewBox="0 0 700.000000 700.000000"
 preserveAspectRatio="xMidYMid meet">
<metadata>
Created by potrace 1.11, written by Peter Selinger 2001-2013
</metadata>
<g transform="translate(0.000000,700.000000) scale(0.100000,-0.100000)"
fill="#000000" stroke="none">
<path d="M5508 6610 c-87 -18 -204 -74 -262 -123 -45 -39 -52 -80 -17 -108 28
-23 52 -18 109 24 54 40 149 82 207 92 92 15 123 48 95 100 -17 31 -42 34
-132 15z"/>
<path d="M5776 6578 c-33 -47 -14 -76 72 -112 213 -86 343 -293 328 -522 -8
-116 -61 -247 -131 -320 -5 -6 -55 -64 -110 -129 -55 -65 -154 -182 -220 -259
-66 -78 -201 -235 -299 -351 -99 -115 -182 -214 -186 -218 -4 -5 -43 22 -86
59 -107 90 -185 157 -198 169 -6 6 -101 87 -211 180 -212 180 -241 205 -288
245 l-29 26 113 133 c63 74 201 235 307 359 202 236 215 258 174 295 -43 39
-65 25 -179 -112 -53 -64 -100 -118 -103 -121 -3 -3 -71 -81 -150 -175 -174
-205 -186 -219 -226 -264 l-32 -35 -58 49 c-244 209 -370 315 -374 315 -3 0
-34 -34 -69 -76 -61 -73 -62 -76 -45 -92 20 -18 195 -167 284 -242 29 -25 70
-60 91 -79 l39 -33 -48 -57 c-26 -31 -49 -58 -52 -61 -3 -3 -43 -50 -90 -105
-47 -55 -87 -102 -90 -105 -3 -3 -41 -48 -85 -100 -44 -52 -90 -106 -101 -120
-12 -14 -66 -77 -120 -140 -55 -64 -160 -187 -234 -273 -74 -87 -139 -166
-144 -177 -15 -33 1 -69 37 -78 19 -5 38 -5 47 1 12 8 173 195 772 899 13 14
63 74 112 132 89 105 90 106 110 88 12 -10 53 -45 91 -78 39 -32 72 -61 75
-64 3 -3 48 -41 100 -85 132 -111 139 -117 164 -140 12 -11 44 -38 71 -60 27
-22 56 -47 65 -55 12 -12 116 -99 213 -180 4 -3 -25 -45 -65 -91 -40 -47 -91
-108 -113 -134 -22 -27 -45 -53 -50 -59 -6 -6 -49 -56 -95 -111 -47 -55 -87
-102 -90 -105 -3 -3 -30 -34 -60 -70 -30 -35 -65 -76 -76 -90 -18 -21 -242
-283 -444 -520 -25 -30 -55 -66 -66 -79 -10 -12 -30 -36 -44 -51 -14 -16 -41
-48 -62 -72 -71 -85 -300 -353 -322 -378 -63 -71 -352 -414 -357 -423 -26 -48
-3 -97 45 -97 32 0 35 4 265 275 112 132 225 265 251 295 26 30 105 123 175
205 70 83 137 161 149 175 11 14 71 84 131 155 60 72 122 144 136 160 15 17
134 156 265 311 132 154 256 301 277 325 20 24 83 99 140 166 56 67 105 122
108 122 5 1 88 -67 224 -184 173 -149 240 -205 245 -204 3 0 33 34 67 77 l63
76 -38 32 c-20 18 -86 74 -147 125 -60 52 -119 102 -130 112 -11 10 -48 42
-82 70 -35 28 -63 54 -63 58 0 4 19 29 43 55 24 27 103 121 177 208 210 248
378 446 430 506 26 30 78 91 115 135 36 44 74 89 84 100 31 37 68 110 96 185
33 91 42 246 19 350 -38 180 -178 358 -346 439 -97 47 -139 52 -162 19z"/>
<path d="M5062 6290 c-34 -32 -51 -72 -41 -98 11 -28 53 -46 79 -32 30 16 70
70 70 94 0 51 -68 73 -108 36z"/>
<path d="M2957 3817 c-58 -62 -122 -138 -131 -157 -21 -46 31 -103 74 -80 10
5 52 48 94 95 58 65 76 92 76 114 0 66 -63 81 -113 28z"/>
<path d="M2662 3473 c-53 -60 -61 -70 -127 -149 -59 -70 -174 -205 -204 -239
-14 -16 -60 -70 -101 -120 -41 -49 -82 -96 -90 -105 -8 -9 -31 -36 -51 -61
-20 -24 -53 -62 -72 -84 -19 -22 -180 -211 -358 -420 -178 -209 -326 -382
-329 -385 -3 -3 -27 -32 -55 -65 -27 -33 -52 -62 -55 -65 -3 -3 -79 -93 -170
-200 -90 -107 -167 -197 -170 -200 -28 -26 -87 -112 -114 -167 -128 -263 -71
-567 143 -765 87 -80 172 -125 207 -109 30 13 45 49 32 76 -5 11 -39 38 -75
60 -82 50 -154 130 -198 220 -39 80 -45 101 -52 205 -10 140 33 260 140 390
34 41 64 77 68 80 3 3 70 82 150 175 79 94 170 202 204 240 33 39 80 94 105
124 25 29 50 59 55 65 6 6 35 40 65 76 30 36 67 78 81 95 15 16 174 203 354
415 334 392 400 470 446 524 150 174 278 326 292 346 22 32 21 56 -3 80 -35
35 -63 26 -118 -37z"/>
<path d="M3148 2214 c-33 -17 -45 -57 -28 -89 27 -50 102 -32 115 27 6 27 3
35 -19 55 -31 27 -32 27 -68 7z"/>
<path d="M2933 1972 c-37 -42 -86 -99 -108 -126 -22 -27 -45 -54 -50 -60 -6
-6 -49 -56 -95 -111 -47 -55 -89 -105 -95 -111 -82 -88 -712 -840 -719 -858
-14 -38 16 -78 56 -74 32 3 34 4 204 203 77 90 124 145 174 205 25 30 54 64
65 76 11 12 49 57 85 100 59 71 141 167 255 299 24 28 96 113 161 190 65 77
121 142 124 145 3 3 24 28 47 56 53 64 61 92 33 122 -37 40 -63 29 -137 -56z"/>
<path d="M1763 587 c-15 -12 -46 -39 -68 -60 -22 -20 -77 -55 -123 -78 -93
-45 -115 -72 -92 -114 16 -30 43 -35 100 -16 58 19 102 43 168 93 103 80 135
136 95 170 -31 26 -50 27 -80 5z"/>
<path d="M1312 387 c-46 -21 -45 -87 1 -108 36 -17 105 5 117 37 23 60 -47
102 -118 71z"/>
</g>
</svg>
